<svg xmlns="http://www.w3.org/2000/svg" xmlns:xlink="http://www.w3.org/1999/xlink" viewBox="0 0 1920 1000"><defs><path id="SVGID_1_" d="M0 1h1920v999H0z"/></defs><clipPath id="SVGID_2_"><use xlink:href="#SVGID_1_" overflow="visible"/></clipPath><linearGradient id="SVGID_3_" gradientUnits="userSpaceOnUse" x1="535.497" y1="169.378" x2="1940.751" y2="169.378"><stop offset="0" stop-color="#fff" stop-opacity="0"/><stop offset="1" stop-color="#fff"/></linearGradient><path opacity=".1" clip-path="url(#SVGID_2_)" fill="url(#SVGID_3_)" d="M535.5 657.8L1727.3-534l213.5 3L537 872.8z"/><linearGradient id="SVGID_4_" gradientUnits="userSpaceOnUse" x1=".293" y1="322.926" x2="661.438" y2="322.926"><stop offset="0" stop-color="#fff" stop-opacity="0"/><stop offset="1" stop-color="#fff"/></linearGradient><path opacity=".1" clip-path="url(#SVGID_2_)" fill="url(#SVGID_4_)" d="M.3 552.7L561-8l100.4 1.4L1 653.9z"/><linearGradient id="SVGID_5_" gradientUnits="userSpaceOnUse" x1="743.293" y1="256.926" x2="1404.438" y2="256.926"><stop offset="0" stop-color="#fff" stop-opacity="0"/><stop offset="1" stop-color="#fff"/></linearGradient><path opacity=".1" clip-path="url(#SVGID_2_)" fill="url(#SVGID_5_)" d="M743.3 486.7L1304-74l100.4 1.4L744 587.9z"/><linearGradient id="SVGID_6_" gradientUnits="userSpaceOnUse" x1="1275.293" y1="313.926" x2="1936.438" y2="313.926"><stop offset="0" stop-color="#fff" stop-opacity="0"/><stop offset="1" stop-color="#fff"/></linearGradient><path opacity=".1" clip-path="url(#SVGID_2_)" fill="url(#SVGID_6_)" d="M1275.3 543.7L1836-17l100.4 1.4L1276 644.9z"/><linearGradient id="SVGID_7_" gradientUnits="userSpaceOnUse" x1="532.293" y1="322.926" x2="1193.438" y2="322.926"><stop offset="0" stop-color="#fff" stop-opacity="0"/><stop offset="1" stop-color="#fff"/></linearGradient><path opacity=".1" clip-path="url(#SVGID_2_)" fill="url(#SVGID_7_)" d="M532.3 552.7L1093-8l100.4 1.4L533 653.9z"/><linearGradient id="SVGID_8_" gradientUnits="userSpaceOnUse" x1="575.726" y1="568.448" x2="653.457" y2="568.448" gradientTransform="matrix(4.5165 -3.7507 -3.7507 4.5165 303.063 -22.88)"><stop offset="0" stop-color="#fff" stop-opacity="0"/><stop offset="1" stop-color="#fff"/></linearGradient><path clip-path="url(#SVGID_2_)" fill="url(#SVGID_8_)" opacity=".1" d="M669.9 507.2l545-545 52.7-43.6-641.9 641.9z"/><linearGradient id="SVGID_9_" gradientUnits="userSpaceOnUse" x1="1028.895" y1="-322.216" x2="2996.926" y2="-322.216"><stop offset="0" stop-color="#fff" stop-opacity="0"/><stop offset="1" stop-color="#fff"/></linearGradient><path opacity=".1" clip-path="url(#SVGID_2_)" fill="url(#SVGID_9_)" d="M1028.9 361.9L2698-1307.3l298.9 4.2L1031 662.9z"/><linearGradient id="SVGID_10_" gradientUnits="userSpaceOnUse" x1="49.605" y1="-197.142" x2="2288.926" y2="-197.142"><stop offset="0" stop-color="#fff" stop-opacity="0"/><stop offset="1" stop-color="#fff"/></linearGradient><path opacity=".1" clip-path="url(#SVGID_2_)" fill="url(#SVGID_10_)" d="M49.6 581.2L1948.8-1318l340.1 4.8L52 923.7z"/><linearGradient id="SVGID_11_" gradientUnits="userSpaceOnUse" x1="1011.605" y1="-214.142" x2="3250.926" y2="-214.142"><stop offset="0" stop-color="#fff" stop-opacity="0"/><stop offset="1" stop-color="#fff"/></linearGradient><path opacity=".1" clip-path="url(#SVGID_2_)" fill="url(#SVGID_11_)" d="M1011.6 564.2L2910.8-1335l340.1 4.8L1014 906.7z"/><linearGradient id="SVGID_12_" gradientUnits="userSpaceOnUse" x1="287.605" y1="-293.142" x2="2526.926" y2="-293.142"><stop offset="0" stop-color="#fff" stop-opacity="0"/><stop offset="1" stop-color="#fff"/></linearGradient><path opacity=".1" clip-path="url(#SVGID_2_)" fill="url(#SVGID_12_)" d="M287.6 485.2L2186.8-1414l340.1 4.8L290 827.7z"/><linearGradient id="SVGID_13_" gradientUnits="userSpaceOnUse" x1="743.694" y1="-640.66" x2="3835.068" y2="-640.66"><stop offset="0" stop-color="#fff" stop-opacity="0"/><stop offset="1" stop-color="#fff"/></linearGradient><path opacity=".1" clip-path="url(#SVGID_2_)" fill="url(#SVGID_13_)" d="M743.7 433.9L3365.6-2188l469.5 6.6L747 906.7z"/><linearGradient id="SVGID_14_" gradientUnits="userSpaceOnUse" x1="492.694" y1="-653.66" x2="3584.068" y2="-653.66"><stop offset="0" stop-color="#fff" stop-opacity="0"/><stop offset="1" stop-color="#fff"/></linearGradient><path opacity=".1" clip-path="url(#SVGID_2_)" fill="url(#SVGID_14_)" d="M492.7 420.9L3114.6-2201l469.5 6.6L496 893.7z"/><linearGradient id="SVGID_15_" gradientUnits="userSpaceOnUse" x1="270.497" y1="-367.622" x2="1675.751" y2="-367.622"><stop offset="0" stop-color="#fff" stop-opacity="0"/><stop offset="1" stop-color="#fff"/></linearGradient><path opacity=".1" clip-path="url(#SVGID_2_)" fill="url(#SVGID_15_)" d="M270.5 120.8L1462.3-1071l213.5 3L272 335.8z"/><linearGradient id="SVGID_16_" gradientUnits="userSpaceOnUse" x1="1244.173" y1="-595.743" x2="4335.547" y2="-595.743"><stop offset="0" stop-color="#fff" stop-opacity="0"/><stop offset="1" stop-color="#fff"/></linearGradient><path opacity=".1" clip-path="url(#SVGID_2_)" fill="url(#SVGID_16_)" d="M1244.2 478.8l2621.9-2621.9 469.4 6.6-3088 3088.1z"/><linearGradient id="SVGID_17_" gradientUnits="userSpaceOnUse" x1="-675.89" y1="-595.743" x2="2415.485" y2="-595.743"><stop offset="0" stop-color="#fff" stop-opacity="0"/><stop offset="1" stop-color="#fff"/></linearGradient><path opacity=".1" clip-path="url(#SVGID_2_)" fill="url(#SVGID_17_)" d="M-675.9 478.8L1946-2143.1l469.5 6.6L-672.6 951.6z"/></svg>