<?xml version="1.0" standalone="no"?>
<!DOCTYPE svg PUBLIC "-//W3C//DTD SVG 20010904//EN"
 "http://www.w3.org/TR/2001/REC-SVG-20010904/DTD/svg10.dtd">
<svg version="1.0" xmlns="http://www.w3.org/2000/svg"
 width="461.000000pt" height="541.000000pt" viewBox="0 0 461.000000 541.000000"
 preserveAspectRatio="xMidYMid meet">

<g transform="translate(0.000000,541.000000) scale(0.100000,-0.100000)"
fill="#000000" stroke="none">
<path d="M2165 5243 c-363 -30 -638 -109 -920 -266 -545 -302 -932 -825 -1060
-1432 -39 -182 -48 -301 -42 -520 6 -213 27 -349 83 -539 213 -723 801 -1289
1535 -1476 326 -84 722 -84 1048 0 377 96 725 295 998 572 123 124 184 200
275 338 167 255 268 514 324 835 21 119 29 420 15 554 -54 517 -277 973 -652
1336 -363 351 -819 555 -1333 595 -124 10 -186 10 -271 3z m-573 -613 c71 -22
135 -70 174 -131 l24 -39 489 0 489 0 26 44 c109 187 461 195 581 14 28 -42
27 -39 176 -798 64 -327 74 -422 50 -495 -36 -109 -121 -191 -230 -221 -77
-22 -141 -12 -241 38 -73 36 -107 68 -343 326 l-168 182 -343 0 -343 0 -44
-47 c-25 -27 -120 -130 -212 -230 -177 -193 -220 -226 -331 -258 -189 -55
-373 66 -405 266 -11 68 -15 49 164 953 33 169 52 240 70 272 71 121 253 175
417 124z m613 -1121 c-4 -5 -4 -21 -1 -35 6 -24 9 -25 74 -22 l67 3 3 33 3 32
133 0 132 0 47 -48 47 -48 -2 -970 -3 -969 -29 -58 c-48 -99 -41 -97 -397 -97
-301 0 -307 0 -340 23 -42 27 -76 94 -89 173 -11 65 -14 1821 -4 1873 4 17 24
51 46 76 l40 45 139 0 c96 0 138 -3 134 -11z"/>
<path d="M1369 4557 c-62 -23 -104 -55 -126 -94 -12 -21 -34 -106 -52 -193
-16 -85 -63 -319 -102 -520 -40 -201 -72 -390 -72 -421 0 -37 7 -71 22 -102
27 -55 98 -121 148 -138 51 -17 140 -6 200 24 62 32 87 56 294 282 90 98 174
189 185 202 l21 23 390 0 391 0 37 -42 c21 -24 121 -132 223 -241 194 -208
242 -245 338 -261 101 -17 214 54 253 160 27 71 26 98 -5 252 -14 70 -61 310
-104 534 -43 223 -85 419 -93 435 -36 68 -105 105 -208 111 -100 6 -167 -16
-220 -70 -21 -22 -44 -58 -51 -79 l-11 -39 -549 0 -548 0 -10 25 c-19 51 -65
107 -108 132 -37 22 -61 27 -126 30 -51 2 -94 -2 -117 -10z m336 -308 c64 -30
130 -96 157 -157 30 -67 30 -190 1 -254 -30 -66 -104 -141 -166 -169 -76 -34
-182 -33 -257 3 -69 33 -123 85 -157 151 -23 45 -27 64 -27 137 0 77 3 91 34
148 62 116 166 176 295 169 47 -3 87 -12 120 -28z m1380 -24 c19 -18 25 -35
25 -69 0 -37 -5 -48 -31 -70 -35 -30 -74 -33 -109 -9 -35 24 -40 33 -40 81 0
58 33 92 90 92 30 0 47 -6 65 -25z m-210 -210 c34 -33 34 -93 1 -132 -19 -22
-32 -28 -66 -28 -34 0 -47 6 -66 28 -33 39 -33 99 1 132 34 35 96 35 130 0z
m419 0 c35 -32 36 -92 2 -132 -44 -51 -132 -31 -157 36 -12 31 6 86 34 106 34
23 90 19 121 -10z m-1146 -82 c3 -22 0 -23 -72 -23 -75 0 -93 8 -82 36 4 12
21 14 78 12 67 -3 73 -5 76 -25z m447 2 c0 -18 -8 -20 -77 -23 -71 -3 -78 -1
-78 16 0 30 10 33 85 30 62 -3 70 -5 70 -23z m490 -130 c19 -18 25 -35 25 -69
0 -37 -5 -48 -31 -70 -17 -15 -43 -26 -59 -26 -16 0 -42 11 -59 26 -26 22 -31
33 -31 70 0 34 6 51 25 69 34 35 96 35 130 0z"/>
<path d="M1480 4210 c-112 -38 -192 -165 -175 -278 26 -173 194 -280 349 -222
115 44 180 134 180 250 -1 116 -78 223 -185 254 -68 20 -101 20 -169 -4z m94
-55 c46 0 71 4 74 13 2 6 9 12 15 12 6 0 4 -7 -5 -16 -15 -15 -14 -19 8 -51
22 -33 24 -46 24 -149 0 -64 -4 -115 -10 -119 -5 -3 -10 -24 -10 -45 0 -29 -5
-42 -19 -50 -25 -13 -27 -13 -45 6 -9 8 -16 29 -16 45 0 22 -5 29 -20 29 -15
0 -20 -7 -20 -29 0 -16 -7 -37 -16 -45 -18 -19 -20 -19 -45 -6 -14 8 -19 21
-19 50 0 21 -4 42 -10 45 -6 4 -10 53 -10 114 0 98 2 112 24 143 16 24 21 40
15 49 -13 21 -10 36 4 19 9 -12 30 -16 81 -15z m-146 -187 c-2 -54 -7 -83 -15
-86 -10 -3 -13 18 -13 82 0 71 3 86 15 86 13 0 15 -14 13 -82z m312 -3 c0 -50
-4 -85 -10 -85 -6 0 -10 35 -10 85 0 50 4 85 10 85 6 0 10 -35 10 -85z"/>
<path d="M1509 4100 c-17 -16 -28 -34 -24 -40 9 -14 175 -13 175 1 0 6 -13 24
-29 40 -40 39 -82 39 -122 -1z m38 -16 c-9 -9 -28 6 -21 18 4 6 10 6 17 -1 6
-6 8 -13 4 -17z m73 5 c0 -5 -7 -9 -15 -9 -15 0 -20 12 -9 23 8 8 24 -1 24
-14z"/>
<path d="M1480 3940 c0 -47 4 -80 10 -80 6 0 10 -20 10 -45 0 -25 5 -45 10
-45 6 0 10 20 10 45 l0 45 50 0 50 0 0 -39 c0 -22 5 -43 10 -46 6 -4 10 12 10
39 0 25 5 46 10 46 6 0 10 33 10 80 l0 80 -90 0 -90 0 0 -80z"/>
<path d="M1957 3343 c-9 -8 -9 -1535 -1 -1557 5 -14 43 -16 319 -16 251 0 315
3 324 14 8 10 10 224 9 787 l-3 774 -321 3 c-176 1 -323 -1 -327 -5z m443
-444 c0 -31 -30 -88 -55 -105 -11 -7 -35 -17 -53 -20 -30 -6 -32 -5 -32 20 0
39 27 84 63 106 43 27 77 26 77 -1z m-161 -144 c36 -12 46 -12 82 0 23 8 58
15 78 15 41 0 109 -28 130 -53 12 -15 9 -22 -23 -57 -30 -33 -36 -48 -36 -83
0 -48 19 -80 61 -106 l29 -18 -27 -52 c-14 -29 -43 -71 -64 -93 -38 -40 -40
-40 -86 -33 -61 10 -125 10 -184 0 -44 -7 -49 -5 -88 30 -58 53 -102 148 -109
233 -7 110 25 178 102 213 50 23 81 24 135 4z"/>
<path d="M2316 2859 c-27 -32 -34 -59 -15 -59 16 0 69 56 69 74 0 26 -26 18
-54 -15z"/>
<path d="M2335 2733 c-40 -12 -58 -13 -93 -4 -95 25 -161 1 -199 -72 -38 -74
-12 -209 58 -298 52 -65 75 -75 124 -55 47 20 83 20 130 1 20 -9 45 -13 55
-10 24 8 77 68 97 111 16 33 16 34 -10 55 -35 27 -57 69 -57 109 0 37 21 90
43 109 22 18 21 26 -5 43 -37 24 -89 28 -143 11z"/>
<path d="M2240 1635 c-48 -51 -22 -184 37 -193 57 -9 88 133 42 192 -26 33
-49 33 -79 1z"/>
<path d="M4233 723 c9 -2 23 -2 30 0 6 3 -1 5 -18 5 -16 0 -22 -2 -12 -5z"/>
<path d="M993 712 c-85 -3 -97 -8 -64 -29 17 -11 19 -28 23 -170 4 -155 8
-175 46 -237 47 -77 208 -73 266 7 19 25 21 45 24 192 3 144 6 165 22 180 34
30 40 10 40 -129 0 -181 -7 -225 -36 -238 -15 -7 -24 -20 -24 -35 0 -23 2 -23
100 -23 67 0 100 4 100 11 0 6 -13 27 -30 46 -29 32 -30 37 -30 128 0 52 2 95
5 95 3 0 36 -63 75 -140 l70 -140 44 0 45 0 3 205 c3 211 4 214 43 228 6 2 5
13 -3 28 -12 23 -17 24 -92 21 -44 -2 -80 -6 -80 -8 0 -3 11 -15 25 -27 25
-21 26 -26 23 -112 l-3 -90 -47 92 c-41 78 -45 93 -33 103 8 7 15 19 15 27 0
13 -3 13 -15 3 -12 -10 -15 -10 -15 1 0 11 -30 13 -165 11 -91 -2 -165 -6
-165 -11 0 -4 12 -18 26 -32 l26 -24 -5 -157 c-2 -95 -9 -163 -16 -171 -17
-21 -70 -19 -95 4 -19 19 -21 32 -24 171 -3 141 -2 152 17 172 20 21 20 23 4
37 -13 10 -41 13 -100 11z m716 -26 c-2 -2 -15 -9 -29 -16 -23 -12 -24 -12
-11 3 7 10 20 17 29 17 8 0 13 -2 11 -4z"/>
<path d="M2952 710 l-84 -5 21 -27 c20 -25 20 -58 0 -58 -4 0 -6 -7 -3 -15 4
-8 1 -15 -5 -15 -6 0 -8 -6 -5 -14 3 -8 0 -17 -7 -22 -8 -4 -10 -3 -5 4 5 8 0
12 -14 12 -11 0 -23 -7 -26 -15 -4 -8 -11 -12 -17 -8 -6 4 -7 1 -3 -6 5 -7 1
-20 -9 -31 -16 -17 -15 -19 7 -31 13 -6 24 -13 26 -14 2 -2 -4 -17 -13 -34 -9
-18 -13 -36 -10 -41 3 -6 2 -10 -4 -10 -5 0 -13 -10 -16 -22 -9 -28 -54 -78
-72 -78 -21 0 -33 36 -33 105 0 52 5 73 20 93 13 16 17 29 11 35 -5 5 -59 9
-120 8 -103 -2 -111 -1 -111 17 0 32 -23 44 -49 25 -22 -15 -23 -15 -16 8 9
34 51 69 82 69 34 0 83 -30 89 -55 3 -11 17 -29 32 -39 15 -11 24 -16 20 -12
-4 5 8 38 27 75 21 40 30 70 25 75 -5 5 -34 8 -65 7 -30 -1 -55 2 -55 7 0 5
-36 9 -79 8 -72 -1 -83 -4 -122 -32 -23 -17 -50 -45 -59 -62 -10 -17 -20 -28
-24 -25 -4 4 -4 0 0 -10 3 -10 1 -17 -5 -17 -7 0 -11 -25 -11 -68 0 -79 31
-154 77 -187 15 -11 39 -32 53 -47 l24 -28 248 0 c266 0 267 0 228 50 -20 26
-26 85 -11 108 6 10 17 3 41 -28 l34 -42 27 33 28 34 11 -30 c6 -16 13 -36 15
-42 2 -7 -5 -19 -16 -27 -17 -12 -19 -18 -10 -35 11 -20 19 -21 186 -21 121 0
175 3 175 11 0 6 -11 24 -25 41 -21 25 -25 40 -25 94 0 35 2 64 4 64 2 0 14
-30 27 -67 40 -125 51 -144 78 -141 21 3 29 17 59 101 19 53 39 97 43 97 5 0
9 -29 9 -65 0 -60 -2 -66 -24 -76 -21 -10 -23 -15 -14 -35 l11 -24 292 0 c160
0 295 4 300 9 6 5 36 3 70 -5 84 -18 133 -17 180 5 96 43 132 147 79 229 -9
14 -22 21 -30 18 -8 -3 -14 -2 -14 3 0 9 -86 46 -133 57 -38 9 -70 50 -57 74
22 42 76 33 123 -19 15 -17 33 -31 40 -31 7 0 26 27 42 61 24 49 27 62 15 69
-7 4 -24 4 -37 -1 -23 -8 -29 -8 -68 6 -28 10 -135 5 -160 -7 -11 -6 -32 -24
-47 -40 -32 -34 -37 -85 -13 -132 8 -15 15 -34 15 -42 0 -18 44 -40 125 -60
37 -9 79 -27 94 -40 25 -22 25 -24 11 -51 -9 -15 -18 -26 -21 -23 -3 3 -13 -1
-22 -8 -12 -11 -21 -10 -49 1 -37 16 -78 60 -78 85 0 12 -2 12 -17 1 -12 -10
-14 -10 -9 -1 9 16 -22 28 -36 14 -6 -6 -12 -22 -13 -36 -5 -45 -16 -50 -36
-16 -11 17 -23 28 -28 25 -5 -3 -12 -1 -16 4 -8 14 -35 2 -35 -15 0 -8 -5 -14
-11 -14 -5 0 -8 -4 -4 -9 8 -14 -14 -24 -67 -31 l-48 -6 0 73 0 73 33 0 c21 0
41 -8 52 -20 36 -40 45 -26 45 66 0 72 -2 85 -15 80 -8 -3 -15 -1 -15 4 0 6
-4 10 -10 10 -5 0 -9 -3 -8 -7 6 -19 -36 -63 -58 -63 -23 0 -24 3 -24 60 l0
60 36 0 c32 0 88 -28 105 -53 12 -17 29 -2 59 50 42 74 39 75 -181 73 -160 -1
-184 -3 -195 -18 -7 -9 -16 -14 -20 -9 -4 4 -2 7 4 7 7 0 12 6 12 13 0 9 -20
12 -77 9 -123 -5 -117 -3 -96 -32 21 -30 27 -60 11 -60 -6 0 -8 -3 -5 -7 4 -3
2 -12 -4 -20 -6 -7 -8 -13 -5 -13 4 0 0 -7 -9 -16 -9 -9 -14 -23 -11 -30 3 -7
1 -16 -4 -19 -6 -4 -10 -18 -10 -33 0 -44 -24 -7 -54 82 -23 71 -24 81 -11 96
19 21 21 50 3 32 -17 -17 -33 -15 -18 3 11 13 1 15 -84 15 -53 0 -96 -4 -96
-8 0 -5 9 -17 21 -28 20 -18 21 -27 17 -192 -3 -158 -5 -175 -22 -188 -27 -19
-48 1 -75 75 -26 72 -26 71 4 71 30 0 31 11 8 67 -11 26 -23 41 -30 38 -7 -2
-13 0 -13 6 0 6 -6 6 -18 0 -16 -9 -21 -3 -36 44 -12 40 -14 60 -6 74 16 31
13 46 -7 30 -10 -8 -14 -9 -10 -2 11 17 1 19 -91 13z m-272 -34 c0 -2 -7 -9
-15 -16 -13 -11 -14 -10 -9 4 5 14 24 23 24 12z m1049 -10 c15 -18 12 -146 -2
-146 -6 0 -22 -10 -35 -22 -14 -13 -22 -18 -18 -11 3 6 2 14 -4 18 -5 3 -10
33 -10 65 0 46 5 64 23 84 26 30 30 31 46 12z m-1283 -15 c-16 -11 -35 -30
-42 -43 -8 -13 -13 -17 -14 -10 0 17 54 72 72 72 7 0 0 -9 -16 -19z m538 -192
c-3 -6 -12 -5 -20 2 -25 21 -32 43 -22 69 10 25 10 24 29 -18 10 -24 16 -48
13 -53z m-488 1 l62 0 4 -77 3 -78 -48 3 c-40 3 -52 9 -76 39 -37 45 -53 159
-18 124 6 -6 39 -11 73 -11z m1241 14 c-3 -3 -12 -4 -19 -1 -8 3 -5 6 6 6 11
1 17 -2 13 -5z m-27 -34 c23 12 30 -4 30 -75 0 -44 -4 -57 -22 -70 -22 -15
-24 -14 -40 6 -13 15 -18 39 -18 83 0 66 8 87 22 61 7 -11 14 -13 28 -5z"/>
<path d="M100 705 c0 -18 56 -118 72 -126 11 -6 20 -9 21 -7 26 51 36 64 55
66 22 3 22 3 22 -167 0 -161 -1 -171 -21 -184 -17 -13 -19 -19 -10 -36 11 -19
21 -21 106 -21 52 0 95 4 95 9 0 5 -11 23 -25 39 -24 29 -25 33 -25 197 l0
166 23 -6 c12 -4 33 -20 47 -36 14 -16 29 -29 33 -29 4 0 15 16 23 35 23 55
34 42 34 -40 0 -67 -2 -75 -19 -75 -23 0 -34 -28 -25 -64 4 -17 13 -26 25 -26
16 0 19 -8 19 -49 0 -39 -5 -53 -21 -64 -18 -13 -19 -18 -7 -36 11 -19 22 -21
104 -21 50 0 94 3 97 6 4 4 -7 22 -23 41 -25 28 -30 42 -30 88 0 46 3 55 21
60 12 4 25 3 30 -2 9 -9 49 -155 49 -182 0 -9 8 -26 18 -39 l18 -23 64 30 c36
17 71 31 78 31 23 0 12 21 -40 73 -29 29 -63 73 -75 97 l-22 44 44 38 c25 22
46 51 50 68 8 35 -9 93 -32 112 -12 9 -15 9 -9 1 4 -7 2 -13 -3 -13 -6 0 -11
4 -11 8 0 37 -164 55 -252 28 -28 -8 -48 -10 -48 -4 0 5 -4 6 -10 3 -5 -3 -10
-1 -10 5 0 7 -66 10 -215 10 -118 -1 -215 -3 -215 -5z m613 -32 c3 -5 -14 -9
-37 -9 -33 -2 -36 0 -16 6 34 11 48 11 53 3z m-495 -19 c-16 -8 -28 -21 -28
-29 0 -7 -4 -16 -9 -19 -5 -4 -7 3 -4 14 6 21 40 50 58 50 5 -1 -2 -8 -17 -16z
m190 9 c-10 -2 -26 -2 -35 0 -10 3 -2 5 17 5 19 0 27 -2 18 -5z m350 -39 c48
-33 12 -102 -60 -120 l-28 -6 0 71 0 71 33 0 c18 0 43 -7 55 -16z m112 -83
c-10 -19 -69 -61 -86 -61 -5 0 10 11 32 25 23 14 44 32 48 40 3 8 8 15 11 15
3 0 1 -9 -5 -19z m-163 -87 c-3 -3 -12 -4 -19 -1 -8 3 -5 6 6 6 11 1 17 -2 13
-5z m-157 -18 c0 -2 -7 -7 -16 -10 -8 -3 -12 -2 -9 4 6 10 25 14 25 6z"/>
<path d="M1833 699 c-46 -13 -134 -102 -125 -127 2 -7 -1 -12 -7 -12 -7 0 -11
-26 -11 -67 0 -80 32 -160 75 -189 15 -11 39 -31 54 -46 l25 -28 153 0 c105 0
153 3 153 11 0 6 -11 24 -25 41 -21 25 -25 39 -25 100 0 55 4 75 20 96 13 16
17 29 11 35 -5 5 -59 9 -120 8 -103 -2 -111 -1 -111 17 0 32 -23 44 -49 25
-22 -15 -23 -15 -16 8 9 34 51 69 82 69 29 0 83 -29 83 -46 0 -15 50 -68 57
-60 4 3 3 6 0 6 -4 0 8 31 27 69 36 71 38 97 4 58 l-19 -22 10 22 c15 31 14
34 -13 23 -16 -6 -42 -4 -77 6 -61 16 -109 17 -156 3z m33 -48 c-16 -11 -35
-30 -42 -43 -8 -13 -13 -17 -14 -10 0 17 54 72 72 72 7 0 0 -9 -16 -19z m-21
-181 c3 -5 35 -10 70 -10 l63 0 4 -78 3 -77 -49 5 c-41 4 -53 11 -76 40 -29
36 -51 130 -31 130 5 0 13 -4 16 -10z"/>
</g>
</svg>
